<svg xmlns="http://www.w3.org/2000/svg" viewBox="0 0 400 140" fill="none">
  <!-- B icon with circuit elements -->
  <defs>
    <linearGradient id="bGrad" x1="0%" y1="0%" x2="100%" y2="100%">
      <stop offset="0%" style="stop-color:#00C4FF;stop-opacity:1" />
      <stop offset="100%" style="stop-color:#0B2545;stop-opacity:1" />
    </linearGradient>
  </defs>
  <!-- B letter shape -->
  <path d="M20 20 L20 120 L70 120 Q100 120 100 95 Q100 78 82 72 Q98 66 98 50 Q98 20 68 20 Z" fill="url(#bGrad)"/>
  <path d="M38 35 L65 35 Q82 35 82 50 Q82 65 65 65 L38 65 Z" fill="#0B2545"/>
  <path d="M38 72 L68 72 Q84 72 84 95 Q84 108 68 108 L38 108 Z" fill="#0B2545"/>
  <!-- Circuit dots and lines -->
  <circle cx="100" cy="108" r="4" fill="#00C4FF"/>
  <circle cx="115" cy="108" r="4" fill="#00C4FF"/>
  <circle cx="130" cy="108" r="4" fill="#00C4FF"/>
  <line x1="100" y1="108" x2="130" y2="108" stroke="#00C4FF" stroke-width="2"/>
  <line x1="100" y1="108" x2="100" y2="95" stroke="#00C4FF" stroke-width="2"/>
  <line x1="115" y1="108" x2="115" y2="95" stroke="#00C4FF" stroke-width="2"/>
  <!-- B'Store text -->
  <text x="155" y="82" font-family="Inter, Arial, sans-serif" font-size="42" font-weight="800" fill="#0B2545">B'Store</text>
  <!-- VENTURES text -->
  <text x="158" y="110" font-family="Inter, Arial, sans-serif" font-size="22" font-weight="600" letter-spacing="6" fill="#00C4FF">VENTURES</text>
</svg>
